<svg width="624" height="292" viewBox="0 0 624 292" fill="none" xmlns="http://www.w3.org/2000/svg">
<path d="M14.9683 110V0.909088H60.0322C68.1998 0.909088 75.2488 2.38281 81.1792 5.33025C87.1452 8.24218 91.7439 12.4325 94.9754 17.9013C98.2069 23.3345 99.8227 29.7798 99.8227 37.2372C99.8227 44.8011 98.1714 51.2287 94.8689 56.5199C91.5663 61.7756 86.8788 65.7884 80.8064 68.5582C74.7339 71.2926 67.5429 72.6598 59.2332 72.6598H30.7354V51.8857H54.3327C58.3099 51.8857 61.6302 51.3707 64.2936 50.3409C66.9925 49.2756 69.0344 47.6776 70.4193 45.5469C71.8042 43.3807 72.4967 40.6108 72.4967 37.2372C72.4967 33.8636 71.8042 31.076 70.4193 28.8743C69.0344 26.6371 66.9925 24.968 64.2936 23.8672C61.5947 22.7308 58.2744 22.1626 54.3327 22.1626H41.3355V110H14.9683ZM76.3852 60.142L103.551 110H74.7872L48.1537 60.142H76.3852ZM148.152 0.909088V110H121.785V0.909088H148.152ZM196.974 0.909088L221.37 80.8097H222.276L246.672 0.909088H276.182L239.374 110H204.271L167.464 0.909088H196.974ZM295.427 110V0.909088H371.493V22.3224H321.794V44.6946H367.604V66.1612H321.794V88.5866H371.493V110H295.427ZM395.505 110V0.909088H440.569C448.737 0.909088 455.786 2.38281 461.716 5.33025C467.682 8.24218 472.281 12.4325 475.513 17.9013C478.744 23.3345 480.36 29.7798 480.36 37.2372C480.36 44.8011 478.709 51.2287 475.406 56.5199C472.103 61.7756 467.416 65.7884 461.343 68.5582C455.271 71.2926 448.08 72.6598 439.77 72.6598H411.272V51.8857H434.87C438.847 51.8857 442.167 51.3707 444.831 50.3409C447.53 49.2756 449.571 47.6776 450.956 45.5469C452.341 43.3807 453.034 40.6108 453.034 37.2372C453.034 33.8636 452.341 31.076 450.956 28.8743C449.571 26.6371 447.53 24.968 444.831 23.8672C442.132 22.7308 438.812 22.1626 434.87 22.1626H421.873V110H395.505ZM456.922 60.142L484.089 110H455.324L428.691 60.142H456.922ZM525.919 110H497.581L534.389 0.909088H569.492L606.299 110H577.961L552.34 28.3949H551.487L525.919 110ZM522.137 67.0668H581.37V87.0952H522.137V67.0668ZM0.134766 204.322V182.909H92.34V204.322H59.2612V292H33.2669V204.322H0.134766ZM112.717 292V182.909H157.781C165.949 182.909 172.998 184.383 178.928 187.33C184.894 190.242 189.493 194.433 192.724 199.901C195.956 205.335 197.572 211.78 197.572 219.237C197.572 226.801 195.92 233.229 192.618 238.52C189.315 243.776 184.628 247.788 178.555 250.558C172.483 253.293 165.292 254.66 156.982 254.66H128.484V233.886H152.082C156.059 233.886 159.379 233.371 162.043 232.341C164.741 231.276 166.783 229.678 168.168 227.547C169.553 225.381 170.246 222.611 170.246 219.237C170.246 215.864 169.553 213.076 168.168 210.874C166.783 208.637 164.741 206.968 162.043 205.867C159.344 204.731 156.023 204.163 152.082 204.163H139.085V292H112.717ZM174.134 242.142L201.3 292H172.536L145.903 242.142H174.134ZM243.131 292H214.793L251.6 182.909H286.703L323.511 292H295.173L269.551 210.395H268.699L243.131 292ZM239.349 249.067H298.582V269.095H239.349V249.067ZM352.877 182.909L377.273 262.81H378.179L402.575 182.909H432.085L395.278 292H360.175L323.367 182.909H352.877ZM451.331 292V182.909H527.396V204.322H477.698V226.695H523.507V248.161H477.698V270.587H527.396V292H451.331ZM551.409 292V182.909H577.776V270.587H623.159V292H551.409Z" fill="black"/>
</svg>
