<svg width="395" height="186" viewBox="0 0 395 186" fill="none" xmlns="http://www.w3.org/2000/svg">
<path d="M10.7797 70V0.181816H39.6206C44.8479 0.181816 49.3593 1.125 53.1547 3.01136C56.9729 4.875 59.9161 7.55682 61.9843 11.0568C64.0524 14.5341 65.0865 18.6591 65.0865 23.4318C65.0865 28.2727 64.0297 32.3864 61.9161 35.7727C59.8024 39.1364 56.8024 41.7045 52.9161 43.4773C49.0297 45.2273 44.4274 46.1023 39.1093 46.1023H20.8706V32.8068H35.9729C38.5183 32.8068 40.6433 32.4773 42.3479 31.8182C44.0752 31.1364 45.382 30.1136 46.2684 28.75C47.1547 27.3636 47.5979 25.5909 47.5979 23.4318C47.5979 21.2727 47.1547 19.4886 46.2684 18.0795C45.382 16.6477 44.0752 15.5795 42.3479 14.875C40.6206 14.1477 38.4956 13.7841 35.9729 13.7841H27.6547V70H10.7797ZM50.0865 38.0909L67.4729 70H49.0638L32.0183 38.0909H50.0865ZM95.0572 0.181816V70H78.1822V0.181816H95.0572ZM125.343 0.181816L140.957 51.3182H141.536L157.15 0.181816H176.036L152.48 70H130.014L106.457 0.181816H125.343ZM187.393 70V0.181816H236.075V13.8864H204.268V28.2045H233.587V41.9432H204.268V56.2955H236.075V70H187.393ZM250.483 70V0.181816H279.324C284.552 0.181816 289.063 1.125 292.858 3.01136C296.677 4.875 299.62 7.55682 301.688 11.0568C303.756 14.5341 304.79 18.6591 304.79 23.4318C304.79 28.2727 303.733 32.3864 301.62 35.7727C299.506 39.1364 296.506 41.7045 292.62 43.4773C288.733 45.2273 284.131 46.1023 278.813 46.1023H260.574V32.8068H275.677C278.222 32.8068 280.347 32.4773 282.052 31.8182C283.779 31.1364 285.086 30.1136 285.972 28.75C286.858 27.3636 287.302 25.5909 287.302 23.4318C287.302 21.2727 286.858 19.4886 285.972 18.0795C285.086 16.6477 283.779 15.5795 282.052 14.875C280.324 14.1477 278.199 13.7841 275.677 13.7841H267.358V70H250.483ZM289.79 38.0909L307.177 70H288.768L271.722 38.0909H289.79ZM332.988 70H314.852L338.409 0.181816H360.875L384.431 70H366.295L349.897 17.7727H349.352L332.988 70ZM330.568 42.5227H368.477V55.3409H330.568V42.5227ZM0.806244 129.886V116.182H59.8176V129.886H38.6472V186H22.0108V129.886H0.806244ZM71.8991 186V116.182H100.74C105.967 116.182 110.479 117.125 114.274 119.011C118.092 120.875 121.035 123.557 123.104 127.057C125.172 130.534 126.206 134.659 126.206 139.432C126.206 144.273 125.149 148.386 123.035 151.773C120.922 155.136 117.922 157.705 114.035 159.477C110.149 161.227 105.547 162.102 100.229 162.102H81.99V148.807H97.0923C99.6377 148.807 101.763 148.477 103.467 147.818C105.195 147.136 106.501 146.114 107.388 144.75C108.274 143.364 108.717 141.591 108.717 139.432C108.717 137.273 108.274 135.489 107.388 134.08C106.501 132.648 105.195 131.58 103.467 130.875C101.74 130.148 99.615 129.784 97.0923 129.784H88.7741V186H71.8991ZM111.206 154.091L128.592 186H110.183L93.1377 154.091H111.206ZM154.404 186H136.267L159.824 116.182H182.29L205.847 186H187.711L171.313 133.773H170.767L154.404 186ZM151.983 158.523H189.892V171.341H151.983V158.523ZM223.681 116.182L239.295 167.318H239.875L255.488 116.182H274.375L250.818 186H228.352L204.795 116.182H223.681ZM285.732 186V116.182H334.413V129.886H302.607V144.205H331.925V157.943H302.607V172.295H334.413V186H285.732ZM348.822 186V116.182H365.697V172.295H394.742V186H348.822Z" fill="black"/>
</svg>
