<svg width="264" height="124" viewBox="0 0 264 124" fill="none" xmlns="http://www.w3.org/2000/svg">
<path d="M7.18648 47V0.454544H26.4138C29.8986 0.454544 32.9062 1.08333 35.4365 2.34091C37.9819 3.58333 39.9441 5.37121 41.3228 7.70454C42.7016 10.0227 43.391 12.7727 43.391 15.9545C43.391 19.1818 42.6865 21.9242 41.2774 24.1818C39.8683 26.4242 37.8683 28.1364 35.2774 29.3182C32.6865 30.4848 29.6183 31.0682 26.0728 31.0682H13.9138V22.2045H23.9819C25.6789 22.2045 27.0956 21.9848 28.2319 21.5455C29.3835 21.0909 30.2547 20.4091 30.8456 19.5C31.4365 18.5758 31.7319 17.3939 31.7319 15.9545C31.7319 14.5151 31.4365 13.3258 30.8456 12.3864C30.2547 11.4318 29.3835 10.7197 28.2319 10.25C27.0804 9.76515 25.6638 9.52273 23.9819 9.52273H18.4365V47H7.18648ZM33.391 25.7273L44.9819 47H32.7092L21.3456 25.7273H33.391ZM63.3715 0.454544V47H52.1215V0.454544H63.3715ZM83.5622 0.454544L93.9713 34.5455H94.3576L104.767 0.454544H117.358L101.653 47H86.6758L70.9713 0.454544H83.5622ZM124.929 47V0.454544H157.384V9.59091H136.179V19.1364H155.724V28.2955H136.179V37.8636H157.384V47H124.929ZM166.989 47V0.454544H186.216C189.701 0.454544 192.709 1.08333 195.239 2.34091C197.784 3.58333 199.747 5.37121 201.125 7.70454C202.504 10.0227 203.194 12.7727 203.194 15.9545C203.194 19.1818 202.489 21.9242 201.08 24.1818C199.671 26.4242 197.671 28.1364 195.08 29.3182C192.489 30.4848 189.421 31.0682 185.875 31.0682H173.716V22.2045H183.784C185.481 22.2045 186.898 21.9848 188.034 21.5455C189.186 21.0909 190.057 20.4091 190.648 19.5C191.239 18.5758 191.534 17.3939 191.534 15.9545C191.534 14.5151 191.239 13.3258 190.648 12.3864C190.057 11.4318 189.186 10.7197 188.034 10.25C186.883 9.76515 185.466 9.52273 183.784 9.52273H178.239V47H166.989ZM193.194 25.7273L204.784 47H192.512L181.148 25.7273H193.194ZM221.992 47H209.901L225.606 0.454544H240.583L256.288 47H244.197L233.265 12.1818H232.901L221.992 47ZM220.379 28.6818H245.651V37.2273H220.379V28.6818ZM0.537506 86.5909V77.4545H39.8784V86.5909H25.7648V124H14.6739V86.5909H0.537506ZM47.9327 124V77.4545H67.16C70.6449 77.4545 73.6524 78.0833 76.1827 79.3409C78.7282 80.5833 80.6903 82.3712 82.0691 84.7045C83.4479 87.0227 84.1373 89.7727 84.1373 92.9545C84.1373 96.1818 83.4327 98.9242 82.0236 101.182C80.6145 103.424 78.6145 105.136 76.0236 106.318C73.4327 107.485 70.3646 108.068 66.8191 108.068H54.66V99.2045H64.7282C66.4252 99.2045 67.8418 98.9848 68.9782 98.5455C70.1297 98.0909 71.0009 97.4091 71.5918 96.5C72.1827 95.5758 72.4782 94.3939 72.4782 92.9545C72.4782 91.5151 72.1827 90.3258 71.5918 89.3864C71.0009 88.4318 70.1297 87.7197 68.9782 87.25C67.8267 86.7652 66.41 86.5227 64.7282 86.5227H59.1827V124H47.9327ZM74.1373 102.727L85.7282 124H73.4555L62.0918 102.727H74.1373ZM102.936 124H90.845L106.55 77.4545H121.527L137.231 124H125.14L114.209 89.1818H113.845L102.936 124ZM101.322 105.682H126.595V114.227H101.322V105.682ZM149.121 77.4545L159.53 111.545H159.916L170.325 77.4545H182.916L167.212 124H152.235L136.53 77.4545H149.121ZM190.488 124V77.4545H222.942V86.5909H201.738V96.1364H221.283V105.295H201.738V114.864H222.942V124H190.488ZM232.548 124V77.4545H243.798V114.864H263.161V124H232.548Z" fill="black"/>
</svg>
